# 3ds Max Wavefront OBJ Exporter v0.94b - (c)2007 guruware
# File Created: 01.04.2016 17:47:22

mtllib Window_05.mtl

#
# object Window_05
#

v  -219.1832 124.2448 -17.5585
v  -212.9300 124.2448 -17.5585
v  -212.9300 118.6716 -17.5585
v  -219.1832 118.6716 -17.5585
v  -260.1307 124.2448 -17.5585
v  -260.1307 118.6716 -17.5585
v  -266.3905 124.2448 -17.5585
v  -266.3905 118.6716 -17.5585
v  -219.1832 157.6963 -17.5585
v  -212.9300 157.6963 -17.5585
v  -266.3905 157.6963 -17.5585
v  -260.1307 157.6963 -17.5585
v  -219.1832 163.0941 -17.5585
v  -212.9300 163.0941 -17.5585
v  -260.1307 163.0941 -17.5585
v  -266.3905 163.0941 -17.5585
v  -219.1832 195.7409 -17.5585
v  -212.9300 195.7409 -17.5585
v  -266.3905 195.7409 -17.5585
v  -260.1307 195.7409 -17.5585
v  -219.1832 201.0040 -17.5585
v  -212.9300 201.0040 -17.5585
v  -260.1307 201.0040 -17.5585
v  -266.3905 201.0040 -17.5585
v  -219.1832 235.8215 -17.5585
v  -212.9300 235.8215 -17.5585
v  -266.3905 235.8215 -17.5585
v  -260.1307 235.8215 -17.5585
v  -219.1832 241.3768 -17.5585
v  -212.9300 241.3768 -17.5585
v  -260.1307 241.3768 -17.5585
v  -266.3905 241.3768 -17.5585
v  -212.9300 118.6716 -21.1204
v  -212.9300 124.2448 -21.1204
v  -219.1832 124.2448 -21.1204
v  -219.1832 118.6716 -21.1204
v  -260.1307 124.2448 -21.1204
v  -260.1307 118.6716 -21.1204
v  -266.3905 124.2448 -21.1204
v  -266.3905 118.6716 -21.1204
v  -212.9300 157.6963 -21.1204
v  -219.1832 157.6963 -21.1204
v  -260.1307 157.6963 -21.1204
v  -266.3905 157.6963 -21.1204
v  -212.9300 163.0941 -21.1204
v  -219.1832 163.0941 -21.1204
v  -260.1307 163.0941 -21.1204
v  -266.3905 163.0941 -21.1204
v  -212.9300 195.7409 -21.1204
v  -219.1832 195.7409 -21.1204
v  -260.1307 195.7409 -21.1204
v  -266.3905 195.7409 -21.1204
v  -212.9300 201.0040 -21.1204
v  -219.1832 201.0040 -21.1204
v  -260.1307 201.0040 -21.1204
v  -266.3905 201.0040 -21.1204
v  -212.9300 235.8215 -21.1204
v  -219.1832 235.8215 -21.1204
v  -260.1307 235.8215 -21.1204
v  -266.3905 235.8215 -21.1204
v  -212.9300 241.3768 -21.1204
v  -219.1832 241.3768 -21.1204
v  -260.1307 241.3768 -21.1204
v  -266.3905 241.3768 -21.1204
# 64 vertices

vn 0.0000 -0.0000 1.0000
vn 0.0000 0.0000 -1.0000
vn 0.0000 -1.0000 -0.0000
vn 1.0000 0.0000 -0.0000
vn 0.0000 1.0000 0.0000
vn -1.0000 0.0000 -0.0000
# 6 vertex normals

vt 0.8071 0.9391 0.0000
vt 0.8572 0.9391 0.0000
vt 0.8572 0.9838 0.0000
vt 0.8071 0.9838 0.0000
vt 0.4788 0.9391 0.0000
vt 0.4788 0.9838 0.0000
vt 0.4286 0.9391 0.0000
vt 0.4286 0.9838 0.0000
vt 0.8071 0.6709 0.0000
vt 0.8572 0.6709 0.0000
vt 0.4286 0.6709 0.0000
vt 0.4788 0.6709 0.0000
vt 0.8071 0.6276 0.0000
vt 0.8572 0.6276 0.0000
vt 0.4788 0.6276 0.0000
vt 0.4286 0.6276 0.0000
vt 0.8071 0.3659 0.0000
vt 0.8572 0.3659 0.0000
vt 0.4286 0.3659 0.0000
vt 0.4788 0.3659 0.0000
vt 0.8071 0.3237 0.0000
vt 0.8572 0.3237 0.0000
vt 0.4788 0.3237 0.0000
vt 0.4286 0.3237 0.0000
vt 0.8071 0.0445 0.0000
vt 0.8572 0.0445 0.0000
vt 0.4286 0.0445 0.0000
vt 0.4788 0.0445 0.0000
vt 0.8071 0.0000 0.0000
vt 0.8572 0.0000 0.0000
vt 0.4788 0.0000 0.0000
vt 0.4286 0.0000 0.0000
vt 0.4286 0.0447 0.0000
vt 0.3785 0.0447 0.0000
vt 0.3785 0.0000 0.0000
vt 0.0502 0.0447 0.0000
vt 0.0502 0.0000 0.0000
vt 0.0000 0.0447 0.0000
vt 0.0000 0.0000 0.0000
vt 0.4286 0.3129 0.0000
vt 0.3785 0.3129 0.0000
vt 0.0502 0.3129 0.0000
vt 0.0000 0.3129 0.0000
vt 0.4286 0.3561 0.0000
vt 0.3785 0.3561 0.0000
vt 0.0502 0.3561 0.0000
vt 0.0000 0.3561 0.0000
vt 0.4286 0.6179 0.0000
vt 0.3785 0.6179 0.0000
vt 0.0502 0.6179 0.0000
vt 0.0000 0.6179 0.0000
vt 0.4286 0.6601 0.0000
vt 0.3785 0.6601 0.0000
vt 0.0502 0.6601 0.0000
vt 0.0000 0.6601 0.0000
vt 0.4286 0.9392 0.0000
vt 0.3785 0.9392 0.0000
vt 0.0502 0.9392 0.0000
vt 0.0000 0.9392 0.0000
vt 0.3785 0.9838 0.0000
vt 0.0502 0.9838 0.0000
vt 0.0000 0.9838 0.0000
vt 0.9429 0.0000 0.0000
vt 0.9429 0.0501 0.0000
vt 0.9143 0.0501 0.0000
vt 0.9143 0.0000 0.0000
vt 0.8858 0.9391 0.0000
vt 0.8858 0.9838 0.0000
vt 0.9429 0.3784 0.0000
vt 0.9143 0.3784 0.0000
vt 0.9714 0.0000 0.0000
vt 0.9714 0.3283 0.0000
vt 0.9429 0.3283 0.0000
vt 0.9429 0.4286 0.0000
vt 0.9143 0.4286 0.0000
vt 0.9143 0.0447 0.0000
vt 0.8858 0.0447 0.0000
vt 0.8858 0.0000 0.0000
vt 0.8058 0.9060 0.0000
vt 0.5376 0.9060 0.0000
vt 0.5376 0.8775 0.0000
vt 0.8058 0.8775 0.0000
vt 0.8858 0.6709 0.0000
vt 0.9143 0.3129 0.0000
vt 0.8858 0.3129 0.0000
vt 0.8058 0.2862 0.0000
vt 0.5376 0.2862 0.0000
vt 0.5376 0.2577 0.0000
vt 0.8058 0.2577 0.0000
vt 0.8858 0.6276 0.0000
vt 0.9714 0.6566 0.0000
vt 0.9714 0.9849 0.0000
vt 0.9429 0.9849 0.0000
vt 0.9429 0.6566 0.0000
vt 1.0000 0.0000 0.0000
vt 1.0000 0.3283 0.0000
vt 0.9143 0.3561 0.0000
vt 0.8858 0.3561 0.0000
vt 0.5440 0.2577 0.0000
vt 0.5440 0.2291 0.0000
vt 0.8058 0.2291 0.0000
vt 0.8858 0.3659 0.0000
vt 0.9143 0.6179 0.0000
vt 0.8858 0.6179 0.0000
vt 0.5440 0.8775 0.0000
vt 0.5440 0.8489 0.0000
vt 0.8058 0.8489 0.0000
vt 0.8858 0.3237 0.0000
vt 1.0000 0.6566 0.0000
vt 0.9143 0.6601 0.0000
vt 0.8858 0.6601 0.0000
vt 0.8058 0.3148 0.0000
vt 0.5266 0.3148 0.0000
vt 0.5266 0.2862 0.0000
vt 0.8858 0.0445 0.0000
vt 0.9143 0.9392 0.0000
vt 0.8858 0.9392 0.0000
vt 0.8058 0.9346 0.0000
vt 0.5266 0.9346 0.0000
vt 0.5266 0.9060 0.0000
vt 0.9429 0.8071 0.0000
vt 0.9429 0.8572 0.0000
vt 0.9143 0.8572 0.0000
vt 0.9143 0.8071 0.0000
vt 1.0000 0.9849 0.0000
vt 0.9429 0.4788 0.0000
vt 0.9143 0.4788 0.0000
vt 0.9143 0.9838 0.0000
# 128 texture coords

g Window_05
usemtl Window
s 1
f 4/4/1 3/3/1 2/2/1 1/1/1 
f 6/6/1 4/4/1 1/1/1 5/5/1 
f 8/8/1 6/6/1 5/5/1 7/7/1 
f 1/1/1 2/2/1 10/10/1 9/9/1 
f 7/7/1 5/5/1 12/12/1 11/11/1 
f 9/9/1 10/10/1 14/14/1 13/13/1 
f 12/12/1 9/9/1 13/13/1 15/15/1 
f 11/11/1 12/12/1 15/15/1 16/16/1 
f 13/13/1 14/14/1 18/18/1 17/17/1 
f 16/16/1 15/15/1 20/20/1 19/19/1 
f 17/17/1 18/18/1 22/22/1 21/21/1 
f 20/20/1 17/17/1 21/21/1 23/23/1 
f 19/19/1 20/20/1 23/23/1 24/24/1 
f 21/21/1 22/22/1 26/26/1 25/25/1 
f 24/24/1 23/23/1 28/28/1 27/27/1 
f 25/25/1 26/26/1 30/30/1 29/29/1 
f 28/28/1 25/25/1 29/29/1 31/31/1 
f 27/27/1 28/28/1 31/31/1 32/32/1 
f 36/35/2 35/34/2 34/33/2 33/32/2 
f 38/37/2 37/36/2 35/34/2 36/35/2 
f 40/39/2 39/38/2 37/36/2 38/37/2 
f 35/34/2 42/41/2 41/40/2 34/33/2 
f 39/38/2 44/43/2 43/42/2 37/36/2 
f 42/41/2 46/45/2 45/44/2 41/40/2 
f 43/42/2 47/46/2 46/45/2 42/41/2 
f 44/43/2 48/47/2 47/46/2 43/42/2 
f 46/45/2 50/49/2 49/48/2 45/44/2 
f 48/47/2 52/51/2 51/50/2 47/46/2 
f 50/49/2 54/53/2 53/52/2 49/48/2 
f 51/50/2 55/54/2 54/53/2 50/49/2 
f 52/51/2 56/55/2 55/54/2 51/50/2 
f 54/53/2 58/57/2 57/56/2 53/52/2 
f 56/55/2 60/59/2 59/58/2 55/54/2 
f 58/57/2 62/60/2 61/8/2 57/56/2 
f 59/58/2 63/61/2 62/60/2 58/57/2 
f 60/59/2 64/62/2 63/61/2 59/58/2 
s 2
f 3/66/3 4/65/3 36/64/3 33/63/3 
s 4
f 2/2/4 3/3/4 33/68/4 34/67/4 
s 2
f 4/65/3 6/70/3 38/69/3 36/64/3 
f 5/63/5 1/73/5 35/72/5 37/71/5 
f 6/70/3 8/75/3 40/74/3 38/69/3 
s 4
f 8/78/6 7/77/6 39/76/6 40/66/6 
f 1/82/6 9/81/6 42/80/6 35/79/6 
f 10/10/4 2/2/4 34/67/4 41/83/4 
f 7/77/6 11/85/6 44/84/6 39/76/6 
f 12/89/4 5/88/4 37/87/4 43/86/4 
f 14/14/4 10/10/4 41/83/4 45/90/4 
s 2
f 9/94/3 12/93/3 43/92/3 42/91/3 
f 15/71/5 13/72/5 46/96/5 47/95/5 
s 4
f 11/85/6 16/98/6 48/97/6 44/84/6 
f 13/101/6 17/100/6 50/99/6 46/89/6 
f 18/18/4 14/14/4 45/90/4 49/102/4 
f 16/98/6 19/104/6 52/103/6 48/97/6 
f 20/107/4 15/106/4 47/105/4 51/82/4 
f 22/22/4 18/18/4 49/102/4 53/108/4 
s 2
f 17/72/3 20/91/3 51/109/3 50/96/3 
f 23/73/5 21/94/5 54/91/5 55/72/5 
s 4
f 19/104/6 24/111/6 56/110/6 52/103/6 
f 21/86/6 25/114/6 58/113/6 54/112/6 
f 26/26/4 22/22/4 53/108/4 57/115/4 
f 24/111/6 27/117/6 60/116/6 56/110/6 
f 28/79/4 23/120/4 55/119/4 59/118/4 
s 2
f 29/124/5 30/123/5 61/122/5 62/121/5 
s 4
f 30/30/4 26/26/4 57/115/4 61/78/4 
s 2
f 25/91/3 28/92/3 59/125/3 58/109/3 
f 31/127/5 29/124/5 62/121/5 63/126/5 
s 4
f 27/117/6 32/68/6 64/128/6 60/116/6 
s 2
f 32/75/5 31/127/5 63/126/5 64/74/5 
# 68 polygons

#
# object Window_Glass03
#

v  -218.3125 158.1280 -19.2277
v  -261.1229 158.1280 -19.2277
v  -261.1229 123.5779 -19.2277
v  -218.3125 123.5779 -19.2277
v  -218.3125 236.4128 -19.2277
v  -261.1229 236.4128 -19.2277
v  -261.1229 200.4672 -19.2277
v  -218.3125 200.4672 -19.2277
v  -253.6086 173.0062 -19.2277
v  -261.1229 162.2271 -19.2277
v  -252.8312 166.7873 -19.2277
v  -218.3125 196.3861 -19.2277
v  -240.7822 196.3861 -19.2277
v  -234.9520 192.4401 -19.2277
v  -227.9557 192.0515 -19.2277
v  -253.2199 192.8288 -19.2277
v  -248.5557 190.1081 -19.2277
v  -261.1229 196.3861 -19.2277
v  -252.4425 187.7760 -19.2277
v  -257.6897 187.5817 -19.2277
v  -257.4953 180.0024 -19.2277
v  -253.6086 180.7798 -19.2277
v  -243.1142 162.2271 -19.2277
v  -257.8840 171.4515 -19.2277
v  -229.8991 162.2271 -19.2277
v  -218.3125 162.2271 -19.2277
v  -222.9029 166.7873 -19.2277
v  -228.3444 167.1760 -19.2277
v  -222.5143 177.2817 -19.2277
v  -224.0690 171.0628 -19.2277
v  -224.4576 187.7760 -19.2277
v  -229.5105 185.8326 -19.2277
v  -261.1229 123.5779 -19.4747
v  -261.1229 158.1280 -19.4747
v  -218.3125 158.1280 -19.4747
v  -218.3125 123.5779 -19.4747
v  -261.1229 200.4672 -19.4747
v  -261.1229 236.4128 -19.4747
v  -218.3125 236.4128 -19.4747
v  -218.3125 200.4672 -19.4747
v  -252.8312 166.7873 -19.4747
v  -261.1229 162.2271 -19.4747
v  -253.6086 173.0062 -19.4747
v  -234.9520 192.4401 -19.4747
v  -240.7822 196.3861 -19.4747
v  -218.3125 196.3861 -19.4747
v  -227.9557 192.0515 -19.4747
v  -248.5557 190.1081 -19.4747
v  -253.2199 192.8288 -19.4747
v  -261.1229 196.3861 -19.4747
v  -252.4425 187.7760 -19.4747
v  -257.6897 187.5817 -19.4747
v  -253.6086 180.7798 -19.4747
v  -257.4953 180.0024 -19.4747
v  -243.1142 162.2271 -19.4747
v  -257.8840 171.4515 -19.4747
v  -222.9029 166.7873 -19.4747
v  -218.3125 162.2271 -19.4747
v  -229.8991 162.2271 -19.4747
v  -228.3444 167.1760 -19.4747
v  -224.0690 171.0628 -19.4747
v  -222.5143 177.2817 -19.4747
v  -224.4576 187.7760 -19.4747
v  -229.5105 185.8326 -19.4747
# 64 vertices

vn 0.0000 -0.0000 1.0000
vn 0.0000 0.0000 -1.0000
vn 0.0000 -1.0000 -0.0000
vn 1.0000 0.0000 -0.0000
vn 0.0000 1.0000 0.0000
vn -1.0000 0.0000 -0.0000
vn 0.9923 0.1240 0.0000
vn -0.3195 -0.9476 -0.0000
vn -0.0555 -0.9985 -0.0000
vn -0.9561 0.2931 0.0000
vn -0.5039 -0.8638 -0.0000
vn 0.6283 -0.7780 -0.0000
vn 0.9884 0.1521 0.0000
vn 0.0370 -0.9993 -0.0000
vn 0.1961 -0.9806 -0.0000
vn 0.8575 0.5145 0.0000
vn 0.4248 0.9053 0.0000
vn -0.3417 0.9398 0.0000
vn 0.9990 -0.0454 -0.0000
vn 0.0712 0.9975 0.0000
vn -0.9540 0.2997 0.0000
vn -0.9995 0.0309 0.0000
vn -0.9999 -0.0106 -0.0000
vn -0.9648 -0.2631 -0.0000
vn -0.9833 -0.1821 -0.0000
vn -0.9701 0.2425 0.0000
vn 0.3590 -0.9333 -0.0000
# 27 vertex normals

vt 1.0000 0.2000 0.0000
vt 0.0000 0.2000 0.0000
vt 0.0000 0.0000 0.0000
vt 1.0000 0.0000 0.0000
vt 1.0000 1.0000 0.0000
vt 0.0000 1.0000 0.0000
vt 0.0000 0.8000 0.0000
vt 1.0000 0.8000 0.0000
vt 0.1755 0.4631 0.0000
vt 0.0000 0.4000 0.0000
vt 0.1937 0.4267 0.0000
vt 1.0000 0.6000 0.0000
vt 0.4751 0.6000 0.0000
vt 0.6113 0.5769 0.0000
vt 0.7747 0.5746 0.0000
vt 0.1846 0.5792 0.0000
vt 0.2936 0.5632 0.0000
vt 0.0000 0.6000 0.0000
vt 0.2028 0.5496 0.0000
vt 0.0802 0.5485 0.0000
vt 0.0847 0.5041 0.0000
vt 0.1755 0.5086 0.0000
vt 0.4207 0.4000 0.0000
vt 0.0757 0.4540 0.0000
vt 0.7293 0.4000 0.0000
vt 1.0000 0.4000 0.0000
vt 0.8928 0.4267 0.0000
vt 0.7657 0.4290 0.0000
vt 0.9019 0.4881 0.0000
vt 0.8655 0.4517 0.0000
vt 0.8565 0.5496 0.0000
vt 0.7384 0.5382 0.0000
# 32 texture coords

g Window_Glass03
usemtl Glass
s 1
f 65/129/7 66/130/7 67/131/7 68/132/7 
f 69/133/7 70/134/7 71/135/7 72/136/7 
f 73/137/7 74/138/7 75/139/7 
f 76/140/7 77/141/7 78/142/7 79/143/7 
f 80/144/7 81/145/7 77/141/7 
f 80/144/7 77/141/7 82/146/7 
f 83/147/7 80/144/7 82/146/7 
f 84/148/7 83/147/7 82/146/7 
f 85/149/7 86/150/7 84/148/7 
f 74/138/7 87/151/7 75/139/7 
f 73/137/7 88/152/7 74/138/7 
f 88/152/7 85/149/7 74/138/7 
f 82/146/7 74/138/7 85/149/7 84/148/7 
f 89/153/7 90/154/7 91/155/7 92/156/7 
f 93/157/7 94/158/7 91/155/7 
f 90/154/7 76/140/7 93/157/7 91/155/7 
f 95/159/7 93/157/7 76/140/7 
f 95/159/7 76/140/7 79/143/7 96/160/7 
f 97/131/8 98/130/8 99/129/8 100/132/8 
f 101/135/8 102/134/8 103/133/8 104/136/8 
f 105/139/8 106/138/8 107/137/8 
f 108/142/8 109/141/8 110/140/8 111/143/8 
f 109/141/8 112/145/8 113/144/8 
f 114/146/8 109/141/8 113/144/8 
f 114/146/8 113/144/8 115/147/8 
f 114/146/8 115/147/8 116/148/8 
f 116/148/8 117/150/8 118/149/8 
f 105/139/8 119/151/8 106/138/8 
f 106/138/8 120/152/8 107/137/8 
f 106/138/8 118/149/8 120/152/8 
f 118/149/8 106/138/8 114/146/8 116/148/8 
f 121/155/8 122/154/8 123/153/8 124/156/8 
f 121/155/8 125/158/8 126/157/8 
f 126/157/8 110/140/8 122/154/8 121/155/8 
f 110/140/8 126/157/8 127/159/8 
f 111/143/8 110/140/8 127/159/8 128/160/8 
s 2
f 97/131/9 100/132/9 68/132/9 67/131/9 
s 4
f 100/132/10 99/129/10 65/129/10 68/132/10 
s 2
f 99/129/11 98/130/11 66/130/11 65/129/11 
s 4
f 98/130/12 97/131/12 67/131/12 66/130/12 
s 2
f 101/135/9 104/136/9 72/136/9 71/135/9 
s 4
f 104/136/10 103/133/10 69/133/10 72/136/10 
s 2
f 103/133/11 102/134/11 70/134/11 69/133/11 
s 4
f 102/134/12 101/135/12 71/135/12 70/134/12 
s 2
f 105/139/13 107/137/13 73/137/13 75/139/13 
f 108/142/14 111/143/15 79/143/15 78/142/14 
f 110/140/11 109/141/16 77/141/16 76/140/11 
f 109/141/16 108/142/14 78/142/14 77/141/16 
f 113/144/17 112/145/17 81/145/17 80/144/17 
s 4
f 77/141/18 81/145/18 112/145/18 
f 112/145/18 109/141/18 77/141/18 
s 2
f 82/146/11 77/141/11 109/141/11 
f 109/141/11 114/146/11 82/146/11 
s 4
f 115/147/19 113/144/19 80/144/19 83/147/19 
s 2
f 116/148/20 115/147/20 83/147/20 84/148/20 
f 118/149/21 117/150/21 86/150/21 85/149/21 
s 4
f 117/150/22 116/148/22 84/148/22 86/150/22 
s 2
f 106/138/9 119/151/9 87/151/9 74/138/9 
s 4
f 119/151/23 105/139/23 75/139/23 87/151/23 
f 107/137/24 120/152/24 88/152/24 73/137/24 
s 8
f 120/152/25 118/149/25 85/149/25 88/152/25 
s 4
f 114/146/12 106/138/12 74/138/12 82/146/12 
s 2
f 121/155/26 124/156/26 92/156/26 91/155/26 
s 4
f 124/156/27 123/153/27 89/153/27 92/156/27 
s 2
f 123/153/9 122/154/9 90/154/9 89/153/9 
s 4
f 126/157/28 125/158/29 94/158/29 93/157/28 
f 125/158/29 121/155/30 91/155/30 94/158/29 
f 122/154/10 110/140/10 76/140/10 90/154/10 
f 127/159/31 126/157/28 93/157/28 95/159/31 
f 111/143/32 128/160/32 96/160/32 79/143/32 
s 2
f 128/160/33 127/159/33 95/159/33 96/160/33 
# 45 polygons - 26 triangles

