# 3ds Max Wavefront OBJ Exporter v0.94b - (c)2007 guruware
# File Created: 01.04.2016 17:48:29

mtllib Window_Top_02.mtl

#
# object Window_Top01
#

v  -216.8977 276.3538 -17.5585
v  -216.8977 280.1112 -17.5585
v  -212.5193 280.1112 -17.5585
v  -212.5193 276.3538 -17.5585
v  -216.8977 253.2850 -17.5585
v  -212.5193 253.2850 -17.5585
v  -216.8977 249.3311 -17.5585
v  -212.5193 249.3311 -17.5585
v  -264.0241 276.3538 -17.5585
v  -264.0241 280.1112 -17.5585
v  -264.0241 249.3311 -17.5585
v  -264.0241 253.2850 -17.5585
v  -269.1592 276.3538 -17.5585
v  -269.1592 280.1112 -17.5585
v  -269.1592 253.2850 -17.5585
v  -269.1592 249.3311 -17.5585
v  -316.2608 276.3537 -17.5585
v  -316.2608 280.1112 -17.5585
v  -316.2608 249.3311 -17.5585
v  -316.2608 253.2850 -17.5585
v  -320.3752 276.3537 -17.5585
v  -320.3752 280.1112 -17.5585
v  -320.3752 253.2850 -17.5585
v  -320.3752 249.3311 -17.5585
v  -212.5193 280.1112 -21.1204
v  -216.8977 280.1112 -21.1204
v  -216.8977 276.3538 -21.1204
v  -212.5193 276.3538 -21.1204
v  -216.8977 253.2850 -21.1204
v  -212.5193 253.2850 -21.1204
v  -216.8977 249.3311 -21.1204
v  -212.5193 249.3311 -21.1204
v  -264.0241 280.1112 -21.1204
v  -264.0241 276.3538 -21.1204
v  -264.0241 253.2850 -21.1204
v  -264.0241 249.3311 -21.1204
v  -269.1592 280.1112 -21.1204
v  -269.1592 276.3538 -21.1204
v  -269.1592 253.2850 -21.1204
v  -269.1592 249.3311 -21.1204
v  -316.2608 280.1112 -21.1204
v  -316.2608 276.3537 -21.1204
v  -316.2608 253.2850 -21.1204
v  -316.2608 249.3311 -21.1204
v  -320.3752 280.1112 -21.1204
v  -320.3752 276.3537 -21.1204
v  -320.3752 253.2850 -21.1204
v  -320.3752 249.3311 -21.1204
# 48 vertices

vn 0.0000 0.0000 1.0000
vn -0.0000 -0.0000 -1.0000
vn -0.0000 0.0000 -1.0000
vn 0.0000 1.0000 -0.0000
vn 1.0000 0.0000 -0.0000
vn -1.0000 -0.0000 0.0000
vn -0.0000 -1.0000 0.0000
vn 0.0000 -1.0000 0.0000
vn 0.0000 -1.0000 -0.0000
vn -0.0000 1.0000 -0.0000
vn -0.0000 1.0000 0.0000
vn 1.0000 0.0000 0.0000
vn -1.0000 0.0000 -0.0000
vn 0.0000 1.0000 0.0000
vn -1.0000 0.0000 0.0000
# 15 vertex normals

vt 0.5359 0.9594 0.0000
vt 0.5708 0.9594 0.0000
vt 0.5708 1.0000 0.0000
vt 0.5359 1.0000 0.0000
vt 0.3220 0.9594 0.0000
vt 0.3220 1.0000 0.0000
vt 0.2854 0.9594 0.0000
vt 0.2854 1.0000 0.0000
vt 0.5359 0.5225 0.0000
vt 0.5708 0.5225 0.0000
vt 0.2854 0.5225 0.0000
vt 0.3220 0.5225 0.0000
vt 0.5359 0.4749 0.0000
vt 0.5708 0.4749 0.0000
vt 0.3220 0.4749 0.0000
vt 0.2854 0.4749 0.0000
vt 0.5359 0.0381 0.0000
vt 0.5708 0.0381 0.0000
vt 0.2854 0.0381 0.0000
vt 0.3220 0.0381 0.0000
vt 0.5359 0.0000 0.0000
vt 0.5708 0.0000 0.0000
vt 0.3220 0.0000 0.0000
vt 0.2854 0.0000 0.0000
vt 0.2854 0.0406 0.0000
vt 0.2505 0.0406 0.0000
vt 0.2505 0.0000 0.0000
vt 0.0367 0.0406 0.0000
vt 0.0367 0.0000 0.0000
vt 0.0000 0.0406 0.0000
vt 0.0000 0.0000 0.0000
vt 0.2854 0.4775 0.0000
vt 0.2505 0.4775 0.0000
vt 0.0367 0.4775 0.0000
vt 0.0000 0.4775 0.0000
vt 0.2854 0.5251 0.0000
vt 0.2505 0.5251 0.0000
vt 0.0367 0.5251 0.0000
vt 0.0000 0.5251 0.0000
vt 0.2854 0.9619 0.0000
vt 0.2505 0.9619 0.0000
vt 0.0367 0.9619 0.0000
vt 0.0000 0.9619 0.0000
vt 0.2505 1.0000 0.0000
vt 0.0367 1.0000 0.0000
vt 0.0000 1.0000 0.0000
vt 0.6038 0.9594 0.0000
vt 0.6038 1.0000 0.0000
vt 0.5006 0.9152 0.0000
vt 0.5006 0.7013 0.0000
vt 0.5337 0.7013 0.0000
vt 0.5337 0.9152 0.0000
vt 0.4346 0.4700 0.0000
vt 0.4346 0.2561 0.0000
vt 0.4676 0.2561 0.0000
vt 0.4676 0.4700 0.0000
vt 0.6368 0.0000 0.0000
vt 0.6368 0.0406 0.0000
vt 0.6038 0.0406 0.0000
vt 0.6038 0.0000 0.0000
vt 0.6698 0.0000 0.0000
vt 0.6698 0.4369 0.0000
vt 0.6368 0.4369 0.0000
vt 0.6038 0.5225 0.0000
vt 0.6368 0.4775 0.0000
vt 0.6038 0.4775 0.0000
vt 0.6698 0.8739 0.0000
vt 0.6368 0.8739 0.0000
vt 0.6038 0.4749 0.0000
vt 0.5006 0.2561 0.0000
vt 0.5006 0.4700 0.0000
vt 0.4676 0.9500 0.0000
vt 0.4676 0.7361 0.0000
vt 0.5006 0.7361 0.0000
vt 0.5006 0.9500 0.0000
vt 0.6368 0.5251 0.0000
vt 0.6038 0.5251 0.0000
vt 0.7029 0.0000 0.0000
vt 0.7029 0.4367 0.0000
vt 0.6698 0.4367 0.0000
vt 0.6038 0.0381 0.0000
vt 0.6368 0.9619 0.0000
vt 0.6038 0.9619 0.0000
vt 0.7029 0.8734 0.0000
vt 0.6698 0.8734 0.0000
vt 0.5006 0.2195 0.0000
vt 0.5006 0.1846 0.0000
vt 0.5337 0.1846 0.0000
vt 0.5337 0.2195 0.0000
vt 0.4346 0.9500 0.0000
vt 0.4346 0.7361 0.0000
vt 0.5006 0.4333 0.0000
vt 0.5337 0.4333 0.0000
vt 0.6368 1.0000 0.0000
vt 0.5337 0.4700 0.0000
vt 0.5337 0.9500 0.0000
vt 0.5006 0.6646 0.0000
vt 0.5337 0.6646 0.0000
# 98 texture coords

g Window_Top01
usemtl Window_Top
s 1
f 4/4/1 3/3/1 2/2/1 1/1/1 
f 6/6/1 4/4/1 1/1/1 5/5/1 
f 8/8/1 6/6/1 5/5/1 7/7/1 
f 1/1/1 2/2/1 10/10/1 9/9/1 
f 7/7/1 5/5/1 12/12/1 11/11/1 
f 9/9/1 10/10/1 14/14/1 13/13/1 
f 12/12/1 9/9/1 13/13/1 15/15/1 
f 11/11/1 12/12/1 15/15/1 16/16/1 
f 13/13/1 14/14/1 18/18/1 17/17/1 
f 16/16/1 15/15/1 20/20/1 19/19/1 
f 17/17/1 18/18/1 22/22/1 21/21/1 
f 20/20/1 17/17/1 21/21/1 23/23/1 
f 19/19/1 20/20/1 23/23/1 24/24/1 
f 28/27/2 27/26/2 26/25/2 25/24/2 
f 30/29/2 29/28/2 27/26/2 28/27/2 
f 32/31/2 31/30/2 29/28/2 30/29/2 
f 27/26/2 34/33/2 33/32/2 26/25/2 
f 31/30/2 36/35/3 35/34/3 29/28/2 
f 34/33/2 38/37/2 37/36/2 33/32/2 
f 35/34/3 39/38/2 38/37/2 34/33/2 
f 36/35/3 40/39/3 39/38/2 35/34/3 
f 38/37/2 42/41/2 41/40/2 37/36/2 
f 40/39/3 44/43/2 43/42/2 39/38/2 
f 42/41/2 46/44/2 45/8/2 41/40/2 
f 43/42/2 47/45/2 46/44/2 42/41/2 
f 44/43/2 48/46/2 47/45/2 43/42/2 
s 4
f 2/2/4 3/3/4 25/48/4 26/47/4 
s 2
f 4/52/5 6/51/5 30/50/5 28/49/5 
f 5/56/6 1/55/6 27/54/6 29/53/6 
s 4
f 8/60/7 7/59/7 31/58/8 32/57/7 
f 1/57/9 9/63/9 34/62/9 27/61/9 
f 10/10/10 2/2/4 26/47/4 33/64/10 
f 7/59/7 11/66/8 36/65/8 31/58/8 
f 12/63/10 5/68/10 29/67/11 35/62/10 
f 14/14/10 10/10/10 33/64/10 37/69/10 
s 2
f 9/71/5 12/70/12 35/55/12 34/56/12 
f 15/75/13 13/74/13 38/73/13 39/72/13 
s 4
f 11/66/8 16/77/8 40/76/8 36/65/8 
f 13/61/9 17/80/9 42/79/9 38/78/9 
f 18/18/10 14/14/10 37/69/10 41/81/10 
f 16/77/8 19/83/8 44/82/9 40/76/8 
f 20/80/4 15/85/14 39/84/14 43/79/4 
s 2
f 21/89/15 22/88/6 45/87/6 46/86/15 
s 4
f 22/22/10 18/18/10 41/81/10 45/60/10 
s 2
f 17/72/5 20/73/5 43/91/5 42/90/5 
f 23/93/15 21/89/15 46/86/15 47/92/15 
s 4
f 19/83/8 24/48/9 48/94/9 44/82/9 
s 2
f 24/95/6 23/93/15 47/92/15 48/71/6 
s 8
f 25/75/5 3/96/5 4/52/5 28/49/5 
f 30/50/5 6/51/5 8/98/5 32/97/5 
# 50 polygons

#
# object Top_Window_Glass01
#

v  -268.6703 252.6945 -19.2277
v  -268.6703 276.8267 -19.2277
v  -316.5689 276.8267 -19.2277
v  -316.5689 252.6945 -19.2277
v  -216.5041 252.6945 -19.2277
v  -216.5041 276.8267 -19.2277
v  -264.5713 276.8267 -19.2277
v  -264.5713 252.6945 -19.2277
v  -316.5689 276.8267 -19.4747
v  -268.6703 276.8267 -19.4747
v  -268.6703 252.6945 -19.4747
v  -316.5689 252.6945 -19.4747
v  -264.5713 276.8267 -19.4747
v  -216.5041 276.8267 -19.4747
v  -216.5041 252.6945 -19.4747
v  -264.5713 252.6945 -19.4747
# 16 vertices

vn -0.0000 -0.0000 1.0000
vn 0.0000 0.0000 -1.0000
vn -1.0000 0.0000 -0.0000
vn -0.0000 -1.0000 0.0000
vn 1.0000 -0.0000 -0.0000
vn 0.0000 1.0000 -0.0000
# 6 vertex normals

vt 1.0000 0.2000 0.0000
vt 0.0000 0.2000 0.0000
vt 0.0000 0.0000 0.0000
vt 1.0000 0.0000 0.0000
vt 1.0000 0.6000 0.0000
vt 0.0000 0.6000 0.0000
vt 0.0000 0.4000 0.0000
vt 1.0000 0.4000 0.0000
# 8 texture coords

g Top_Window_Glass01
usemtl Glass
s 1
f 49/99/16 50/100/16 51/101/16 52/102/16 
f 53/103/16 54/104/16 55/105/16 56/106/16 
f 57/101/17 58/100/17 59/99/17 60/102/17 
f 61/105/17 62/104/17 63/103/17 64/106/17 
s 2
f 57/101/18 60/102/18 52/102/18 51/101/18 
s 4
f 60/102/19 59/99/19 49/99/19 52/102/19 
s 2
f 59/99/20 58/100/20 50/100/20 49/99/20 
s 4
f 58/100/21 57/101/21 51/101/21 50/100/21 
s 2
f 61/105/18 64/106/18 56/106/18 55/105/18 
s 4
f 64/106/19 63/103/19 53/103/19 56/106/19 
s 2
f 63/103/20 62/104/20 54/104/20 53/103/20 
s 4
f 62/104/21 61/105/21 55/105/21 54/104/21 
# 12 polygons

