# 3ds Max Wavefront OBJ Exporter v0.94b - (c)2007 guruware
# File Created: 01.04.2016 17:46:29

mtllib Window_03.mtl

#
# object Window_03
#

v  -314.1022 423.9222 -17.5585
v  -320.3554 423.9222 -17.5585
v  -320.3554 418.3490 -17.5585
v  -314.1022 418.3490 -17.5585
v  -273.1547 423.9222 -17.5585
v  -273.1547 418.3490 -17.5585
v  -266.8949 423.9222 -17.5585
v  -266.8949 418.3490 -17.5585
v  -314.1022 457.3738 -17.5585
v  -320.3554 457.3738 -17.5585
v  -266.8949 457.3738 -17.5585
v  -273.1547 457.3738 -17.5585
v  -314.1022 462.7716 -17.5585
v  -320.3554 462.7716 -17.5585
v  -273.1547 462.7716 -17.5585
v  -266.8949 462.7716 -17.5585
v  -314.1022 495.4183 -17.5585
v  -320.3554 495.4183 -17.5585
v  -266.8949 495.4183 -17.5585
v  -273.1547 495.4183 -17.5585
v  -314.1022 500.6814 -17.5585
v  -320.3554 500.6814 -17.5585
v  -273.1547 500.6814 -17.5585
v  -266.8949 500.6814 -17.5585
v  -314.1022 535.4989 -17.5585
v  -320.3554 535.4989 -17.5585
v  -266.8949 535.4989 -17.5585
v  -273.1547 535.4989 -17.5585
v  -314.1022 541.0543 -17.5585
v  -320.3554 541.0543 -17.5585
v  -273.1547 541.0543 -17.5585
v  -266.8949 541.0543 -17.5585
v  -320.3554 418.3490 -21.1204
v  -320.3554 423.9222 -21.1204
v  -314.1022 423.9222 -21.1204
v  -314.1022 418.3490 -21.1204
v  -273.1547 423.9222 -21.1204
v  -273.1547 418.3490 -21.1204
v  -266.8949 423.9222 -21.1204
v  -266.8949 418.3490 -21.1204
v  -320.3554 457.3738 -21.1204
v  -314.1022 457.3738 -21.1204
v  -273.1547 457.3738 -21.1204
v  -266.8949 457.3738 -21.1204
v  -320.3554 462.7716 -21.1204
v  -314.1022 462.7716 -21.1204
v  -273.1547 462.7716 -21.1204
v  -266.8949 462.7716 -21.1204
v  -320.3554 495.4183 -21.1204
v  -314.1022 495.4183 -21.1204
v  -273.1547 495.4183 -21.1204
v  -266.8949 495.4183 -21.1204
v  -320.3554 500.6814 -21.1204
v  -314.1022 500.6814 -21.1204
v  -273.1547 500.6814 -21.1204
v  -266.8949 500.6814 -21.1204
v  -320.3554 535.4989 -21.1204
v  -314.1022 535.4989 -21.1204
v  -273.1547 535.4989 -21.1204
v  -266.8949 535.4989 -21.1204
v  -320.3554 541.0543 -21.1204
v  -314.1022 541.0543 -21.1204
v  -273.1547 541.0543 -21.1204
v  -266.8949 541.0543 -21.1204
# 64 vertices

vn 0.0000 -0.0000 1.0000
vn 0.0000 0.0000 -1.0000
vn 0.0000 -1.0000 -0.0000
vn -1.0000 0.0000 -0.0000
vn 0.0000 1.0000 0.0000
vn 1.0000 0.0000 -0.0000
# 6 vertex normals

vt 0.8071 0.9391 0.0000
vt 0.8572 0.9391 0.0000
vt 0.8572 0.9838 0.0000
vt 0.8071 0.9838 0.0000
vt 0.4788 0.9391 0.0000
vt 0.4788 0.9838 0.0000
vt 0.4286 0.9391 0.0000
vt 0.4286 0.9838 0.0000
vt 0.8071 0.6709 0.0000
vt 0.8572 0.6709 0.0000
vt 0.4286 0.6709 0.0000
vt 0.4788 0.6709 0.0000
vt 0.8071 0.6276 0.0000
vt 0.8572 0.6276 0.0000
vt 0.4788 0.6276 0.0000
vt 0.4286 0.6276 0.0000
vt 0.8071 0.3659 0.0000
vt 0.8572 0.3659 0.0000
vt 0.4286 0.3659 0.0000
vt 0.4788 0.3659 0.0000
vt 0.8071 0.3237 0.0000
vt 0.8572 0.3237 0.0000
vt 0.4788 0.3237 0.0000
vt 0.4286 0.3237 0.0000
vt 0.8071 0.0445 0.0000
vt 0.8572 0.0445 0.0000
vt 0.4286 0.0445 0.0000
vt 0.4788 0.0445 0.0000
vt 0.8071 0.0000 0.0000
vt 0.8572 0.0000 0.0000
vt 0.4788 0.0000 0.0000
vt 0.4286 0.0000 0.0000
vt 0.4286 0.0447 0.0000
vt 0.3785 0.0447 0.0000
vt 0.3785 0.0000 0.0000
vt 0.0502 0.0447 0.0000
vt 0.0502 0.0000 0.0000
vt 0.0000 0.0447 0.0000
vt 0.0000 0.0000 0.0000
vt 0.4286 0.3129 0.0000
vt 0.3785 0.3129 0.0000
vt 0.0502 0.3129 0.0000
vt 0.0000 0.3129 0.0000
vt 0.4286 0.3561 0.0000
vt 0.3785 0.3561 0.0000
vt 0.0502 0.3561 0.0000
vt 0.0000 0.3561 0.0000
vt 0.4286 0.6179 0.0000
vt 0.3785 0.6179 0.0000
vt 0.0502 0.6179 0.0000
vt 0.0000 0.6179 0.0000
vt 0.4286 0.6601 0.0000
vt 0.3785 0.6601 0.0000
vt 0.0502 0.6601 0.0000
vt 0.0000 0.6601 0.0000
vt 0.4286 0.9392 0.0000
vt 0.3785 0.9392 0.0000
vt 0.0502 0.9392 0.0000
vt 0.0000 0.9392 0.0000
vt 0.3785 0.9838 0.0000
vt 0.0502 0.9838 0.0000
vt 0.0000 0.9838 0.0000
vt 0.9429 0.0000 0.0000
vt 0.9429 0.0501 0.0000
vt 0.9143 0.0501 0.0000
vt 0.9143 0.0000 0.0000
vt 0.8858 0.9391 0.0000
vt 0.8858 0.9838 0.0000
vt 0.9429 0.3784 0.0000
vt 0.9143 0.3784 0.0000
vt 0.9714 0.0000 0.0000
vt 0.9714 0.3283 0.0000
vt 0.9429 0.3283 0.0000
vt 0.9429 0.4286 0.0000
vt 0.9143 0.4286 0.0000
vt 0.9143 0.0447 0.0000
vt 0.8858 0.0447 0.0000
vt 0.8858 0.0000 0.0000
vt 0.8058 0.9060 0.0000
vt 0.5376 0.9060 0.0000
vt 0.5376 0.8775 0.0000
vt 0.8058 0.8775 0.0000
vt 0.8858 0.6709 0.0000
vt 0.9143 0.3129 0.0000
vt 0.8858 0.3129 0.0000
vt 0.8058 0.2862 0.0000
vt 0.5376 0.2862 0.0000
vt 0.5376 0.2577 0.0000
vt 0.8058 0.2577 0.0000
vt 0.8858 0.6276 0.0000
vt 0.9714 0.6566 0.0000
vt 0.9714 0.9849 0.0000
vt 0.9429 0.9849 0.0000
vt 0.9429 0.6566 0.0000
vt 1.0000 0.0000 0.0000
vt 1.0000 0.3283 0.0000
vt 0.9143 0.3561 0.0000
vt 0.8858 0.3561 0.0000
vt 0.5440 0.2577 0.0000
vt 0.5440 0.2291 0.0000
vt 0.8058 0.2291 0.0000
vt 0.8858 0.3659 0.0000
vt 0.9143 0.6179 0.0000
vt 0.8858 0.6179 0.0000
vt 0.5440 0.8775 0.0000
vt 0.5440 0.8489 0.0000
vt 0.8058 0.8489 0.0000
vt 0.8858 0.3237 0.0000
vt 1.0000 0.6566 0.0000
vt 0.9143 0.6601 0.0000
vt 0.8858 0.6601 0.0000
vt 0.8058 0.3148 0.0000
vt 0.5266 0.3148 0.0000
vt 0.5266 0.2862 0.0000
vt 0.8858 0.0445 0.0000
vt 0.9143 0.9392 0.0000
vt 0.8858 0.9392 0.0000
vt 0.8058 0.9346 0.0000
vt 0.5266 0.9346 0.0000
vt 0.5266 0.9060 0.0000
vt 0.9429 0.8071 0.0000
vt 0.9429 0.8572 0.0000
vt 0.9143 0.8572 0.0000
vt 0.9143 0.8071 0.0000
vt 1.0000 0.9849 0.0000
vt 0.9429 0.4788 0.0000
vt 0.9143 0.4788 0.0000
vt 0.9143 0.9838 0.0000
# 128 texture coords

g Window_03
usemtl Window
s 1
f 1/1/1 2/2/1 3/3/1 4/4/1 
f 5/5/1 1/1/1 4/4/1 6/6/1 
f 7/7/1 5/5/1 6/6/1 8/8/1 
f 9/9/1 10/10/1 2/2/1 1/1/1 
f 11/11/1 12/12/1 5/5/1 7/7/1 
f 13/13/1 14/14/1 10/10/1 9/9/1 
f 15/15/1 13/13/1 9/9/1 12/12/1 
f 16/16/1 15/15/1 12/12/1 11/11/1 
f 17/17/1 18/18/1 14/14/1 13/13/1 
f 19/19/1 20/20/1 15/15/1 16/16/1 
f 21/21/1 22/22/1 18/18/1 17/17/1 
f 23/23/1 21/21/1 17/17/1 20/20/1 
f 24/24/1 23/23/1 20/20/1 19/19/1 
f 25/25/1 26/26/1 22/22/1 21/21/1 
f 27/27/1 28/28/1 23/23/1 24/24/1 
f 29/29/1 30/30/1 26/26/1 25/25/1 
f 31/31/1 29/29/1 25/25/1 28/28/1 
f 32/32/1 31/31/1 28/28/1 27/27/1 
f 33/32/2 34/33/2 35/34/2 36/35/2 
f 36/35/2 35/34/2 37/36/2 38/37/2 
f 38/37/2 37/36/2 39/38/2 40/39/2 
f 34/33/2 41/40/2 42/41/2 35/34/2 
f 37/36/2 43/42/2 44/43/2 39/38/2 
f 41/40/2 45/44/2 46/45/2 42/41/2 
f 42/41/2 46/45/2 47/46/2 43/42/2 
f 43/42/2 47/46/2 48/47/2 44/43/2 
f 45/44/2 49/48/2 50/49/2 46/45/2 
f 47/46/2 51/50/2 52/51/2 48/47/2 
f 49/48/2 53/52/2 54/53/2 50/49/2 
f 50/49/2 54/53/2 55/54/2 51/50/2 
f 51/50/2 55/54/2 56/55/2 52/51/2 
f 53/52/2 57/56/2 58/57/2 54/53/2 
f 55/54/2 59/58/2 60/59/2 56/55/2 
f 57/56/2 61/8/2 62/60/2 58/57/2 
f 58/57/2 62/60/2 63/61/2 59/58/2 
f 59/58/2 63/61/2 64/62/2 60/59/2 
s 2
f 33/63/3 36/64/3 4/65/3 3/66/3 
s 4
f 34/67/4 33/68/4 3/3/4 2/2/4 
s 2
f 36/64/3 38/69/3 6/70/3 4/65/3 
f 37/71/5 35/72/5 1/73/5 5/63/5 
f 38/69/3 40/74/3 8/75/3 6/70/3 
s 4
f 40/66/6 39/76/6 7/77/6 8/78/6 
f 35/79/6 42/80/6 9/81/6 1/82/6 
f 41/83/4 34/67/4 2/2/4 10/10/4 
f 39/76/6 44/84/6 11/85/6 7/77/6 
f 43/86/4 37/87/4 5/88/4 12/89/4 
f 45/90/4 41/83/4 10/10/4 14/14/4 
s 2
f 42/91/3 43/92/3 12/93/3 9/94/3 
f 47/95/5 46/96/5 13/72/5 15/71/5 
s 4
f 44/84/6 48/97/6 16/98/6 11/85/6 
f 46/89/6 50/99/6 17/100/6 13/101/6 
f 49/102/4 45/90/4 14/14/4 18/18/4 
f 48/97/6 52/103/6 19/104/6 16/98/6 
f 51/82/4 47/105/4 15/106/4 20/107/4 
f 53/108/4 49/102/4 18/18/4 22/22/4 
s 2
f 50/96/3 51/109/3 20/91/3 17/72/3 
f 55/72/5 54/91/5 21/94/5 23/73/5 
s 4
f 52/103/6 56/110/6 24/111/6 19/104/6 
f 54/112/6 58/113/6 25/114/6 21/86/6 
f 57/115/4 53/108/4 22/22/4 26/26/4 
f 56/110/6 60/116/6 27/117/6 24/111/6 
f 59/118/4 55/119/4 23/120/4 28/79/4 
s 2
f 62/121/5 61/122/5 30/123/5 29/124/5 
s 4
f 61/78/4 57/115/4 26/26/4 30/30/4 
s 2
f 58/109/3 59/125/3 28/92/3 25/91/3 
f 63/126/5 62/121/5 29/124/5 31/127/5 
s 4
f 60/116/6 64/128/6 32/68/6 27/117/6 
s 2
f 64/74/5 63/126/5 31/127/5 32/75/5 
# 68 polygons

#
# object Window_Glass04
#

v  -272.4601 457.7199 -19.2277
v  -315.2706 457.7199 -19.2277
v  -315.2706 423.1698 -19.2277
v  -272.4601 423.1698 -19.2277
v  -300.8846 505.1088 -19.2277
v  -312.1562 502.5823 -19.2277
v  -289.0298 503.7484 -19.2277
v  -297.5808 508.8012 -19.2277
v  -287.4751 485.4804 -19.2277
v  -290.3902 483.3427 -19.2277
v  -283.9770 473.6257 -19.2277
v  -305.9374 522.2106 -19.2277
v  -313.3223 503.1653 -19.2277
v  -302.6336 515.4088 -19.2277
v  -315.2706 536.0046 -19.2277
v  -315.2706 500.0591 -19.2277
v  -307.6864 525.9031 -19.2277
v  -303.6053 508.6069 -19.2277
v  -272.4601 500.0591 -19.2277
v  -315.2706 461.8190 -19.2277
v  -294.4713 495.9780 -19.2277
v  -315.2706 495.9780 -19.2277
v  -289.8072 489.1729 -19.2277
v  -272.4601 461.8190 -19.2277
v  -315.2706 423.1698 -19.4747
v  -315.2706 457.7199 -19.4747
v  -272.4601 457.7199 -19.4747
v  -272.4601 423.1698 -19.4747
v  -289.0298 503.7484 -19.4747
v  -312.1562 502.5823 -19.4747
v  -300.8846 505.1088 -19.4747
v  -297.5808 508.8012 -19.4747
v  -283.9770 473.6257 -19.4747
v  -290.3902 483.3427 -19.4747
v  -287.4751 485.4804 -19.4747
v  -313.3223 503.1653 -19.4747
v  -305.9374 522.2106 -19.4747
v  -302.6336 515.4088 -19.4747
v  -315.2706 500.0591 -19.4747
v  -315.2706 536.0046 -19.4747
v  -307.6864 525.9031 -19.4747
v  -303.6053 508.6069 -19.4747
v  -272.4601 500.0591 -19.4747
v  -315.2706 461.8190 -19.4747
v  -315.2706 495.9780 -19.4747
v  -294.4713 495.9780 -19.4747
v  -289.8072 489.1729 -19.4747
v  -272.4601 461.8190 -19.4747
# 48 vertices

vn 0.0000 -0.0000 1.0000
vn 0.0000 0.0000 -1.0000
vn 0.0000 -1.0000 -0.0000
vn 1.0000 0.0000 -0.0000
vn 0.0000 1.0000 0.0000
vn -1.0000 0.0000 -0.0000
vn 0.3676 0.9300 0.0000
vn 0.5087 0.8609 0.0000
vn -0.7452 0.6668 0.0000
vn -0.5914 0.8064 0.0000
vn 0.8628 0.5055 0.0000
vn 0.9591 0.2830 0.0000
vn 0.8029 -0.5961 -0.0000
vn 0.8995 0.4369 0.0000
vn -0.9324 0.3615 0.0000
vn 0.9706 -0.2406 -0.0000
vn 0.7997 0.6004 0.0000
vn 0.7894 0.6139 0.0000
vn -0.5760 0.8175 0.0000
vn 0.2173 0.9761 0.0000
vn 0.9688 0.2480 0.0000
vn 0.8249 0.5654 0.0000
vn 0.9950 -0.0995 -0.0000
vn 0.7158 0.6983 0.0000
# 24 vertex normals

vt 1.0000 0.2000 0.0000
vt 0.0000 0.2000 0.0000
vt 0.0000 0.0000 0.0000
vt 1.0000 0.0000 0.0000
vt 0.3360 0.8281 0.0000
vt 0.0727 0.8140 0.0000
vt 0.6130 0.8205 0.0000
vt 0.4132 0.8486 0.0000
vt 0.6493 0.5385 0.0000
vt 0.5812 0.5260 0.0000
vt 0.7310 0.4691 0.0000
vt 0.2180 0.9233 0.0000
vt 0.0455 0.8173 0.0000
vt 0.2952 0.8854 0.0000
vt 0.0000 1.0000 0.0000
vt 0.0000 0.8000 0.0000
vt 0.1772 0.9438 0.0000
vt 0.2725 0.8476 0.0000
vt 1.0000 0.8000 0.0000
vt 0.0000 0.4000 0.0000
vt 0.4858 0.6000 0.0000
vt 0.0000 0.6000 0.0000
vt 0.5948 0.5602 0.0000
vt 1.0000 0.4000 0.0000
# 24 texture coords

g Window_Glass04
usemtl Glass
s 1
f 65/129/7 66/130/7 67/131/7 68/132/7 
f 69/133/7 70/134/7 71/135/7 72/136/7 
f 73/137/7 74/138/7 75/139/7 
f 76/140/7 77/141/7 70/134/7 78/142/7 
f 79/143/7 80/144/7 77/141/7 81/145/7 
f 70/134/7 77/141/7 80/144/7 
f 69/133/7 82/146/7 70/134/7 
f 71/135/7 70/134/7 80/144/7 83/147/7 
f 74/138/7 84/148/7 75/139/7 
f 85/149/7 86/150/7 84/148/7 
f 87/151/7 85/149/7 84/148/7 
f 74/138/7 87/151/7 84/148/7 
f 84/148/7 88/152/7 75/139/7 
f 89/131/8 90/130/8 91/129/8 92/132/8 
f 93/135/8 94/134/8 95/133/8 96/136/8 
f 97/139/8 98/138/8 99/137/8 
f 94/134/8 100/141/8 101/140/8 102/142/8 
f 100/141/8 103/144/8 104/143/8 105/145/8 
f 103/144/8 100/141/8 94/134/8 
f 94/134/8 106/146/8 95/133/8 
f 103/144/8 94/134/8 93/135/8 107/147/8 
f 97/139/8 108/148/8 98/138/8 
f 108/148/8 109/150/8 110/149/8 
f 108/148/8 110/149/8 111/151/8 
f 108/148/8 111/151/8 98/138/8 
f 97/139/8 112/152/8 108/148/8 
s 2
f 89/131/9 92/132/9 68/132/9 67/131/9 
s 4
f 92/132/10 91/129/10 65/129/10 68/132/10 
s 2
f 91/129/11 90/130/11 66/130/11 65/129/11 
s 4
f 90/130/12 89/131/12 67/131/12 66/130/12 
s 2
f 93/135/13 96/136/14 72/136/14 71/135/13 
s 4
f 96/136/15 95/133/15 69/133/15 72/136/15 
s 2
f 99/137/16 98/138/16 74/138/16 73/137/16 
s 4
f 97/139/17 99/137/18 73/137/18 75/139/17 
s 2
f 94/134/19 102/142/19 78/142/19 70/134/19 
s 4
f 102/142/20 101/140/20 76/140/20 78/142/20 
s 2
f 101/140/21 100/141/21 77/141/21 76/140/21 
s 4
f 100/141/22 105/145/22 81/145/22 77/141/22 
s 2
f 105/145/23 104/143/23 79/143/23 81/145/23 
s 4
f 104/143/12 103/144/12 80/144/12 79/143/12 
s 2
f 95/133/24 106/146/24 82/146/24 69/133/24 
s 4
f 106/146/25 94/134/25 70/134/25 82/146/25 
s 8
f 103/144/9 107/147/9 83/147/9 80/144/9 
s 2
f 107/147/26 93/135/13 71/135/13 83/147/26 
f 110/149/11 109/150/11 86/150/11 85/149/11 
s 4
f 109/150/12 108/148/12 84/148/12 86/150/12 
f 111/151/27 110/149/28 85/149/28 87/151/27 
f 98/138/29 111/151/27 87/151/27 74/138/29 
s 2
f 108/148/9 112/152/9 88/152/9 84/148/9 
s 4
f 112/152/30 97/139/17 75/139/17 88/152/30 
# 34 polygons - 16 triangles

